<svg xmlns="http://www.w3.org/2000/svg" viewBox="0 0 1273.84 1257.22"><defs><style>.cls-1{fill:#403f44;}.cls-2{fill:#5e6572;}.cls-3{fill:#4f515e;}.cls-4{fill:#424450;}.cls-5{fill:#4f515c;}.cls-6{fill:#636977;}.cls-7{fill:#3f3e48;}.cls-8{fill:#0169b7;}.cls-9{fill:#00697c;}</style></defs><title>evro</title><g id="Слой_2" data-name="Слой 2"><g id="Слой_1-2" data-name="Слой 1"><path class="cls-1" d="M84.9,1172.93H22.26v62.76h73v19.09H0V1077.69H94v19.09H22.26v57H84.9Z"/><path class="cls-1" d="M123.7,1254.78V1077.69h50.48q24.19,0,36.42,11.8t12.23,35.39a39.12,39.12,0,0,1-6.2,21.89,41.68,41.68,0,0,1-16.79,14.72,33.69,33.69,0,0,1,19.28,15q7.11,11.31,7.11,27.25,0,23.83-13.07,37.46t-37.28,13.62ZM146,1153.22h28.58q11.55,0,18.67-7.8t7.12-20.72q0-14.62-6.45-21.27t-19.7-6.65H146Zm0,18.73v63.74h30.41q12.65,0,20.06-8.33t7.42-23.42q0-32-27-32Z"/><path class="cls-1" d="M281.82,1185.45v69.33H259.56V1077.69H316q24.69,0,38.8,14.78t14.11,39.34q0,25.55-13.44,39.35t-37.89,14.29Zm0-19.09H316q14.83,0,22.74-8.89t7.91-25.47q0-16-8.15-25.59t-22.38-9.63h-34.3Z"/><path class="cls-1" d="M512.8,1181.8q0,36.26-15.45,55.83t-43.91,19.59q-27.36,0-43.24-19t-16.48-53.82V1151q0-35.51,15.69-55.64t43.79-20.13q28,0,43.6,19.27t16,55Zm-22.26-31q0-28.1-9.18-41.78t-28.16-13.69q-18.37,0-27.8,13.87t-9.54,40.87v31.74q0,27.14,9.42,41.36t28.16,14.23q18.74,0,27.73-13.14t9.37-40.26Z"/><path class="cls-1" d="M715.31,1198.47q-1.45,28.46-16,43.6t-41.05,15.15q-26.64,0-42.33-20.26t-15.69-54.91v-32.11q0-34.55,16.12-54.62t44-20.06q25.65,0,39.71,15.32t15.26,43.91h-22.5q-1.45-21.65-9.12-30.89t-23.35-9.25q-18.14,0-27.86,14.17t-9.73,41.54v32.47q0,26.9,9.06,41.24t26.46,14.35q17.4,0,25.05-8.64t9.49-31Z"/><path class="cls-1" d="M845.46,1096.78H798.87v158H776.61v-158H730.15v-19.09H845.46Z"/><path class="cls-1" d="M893.87,1185.45v69.33H871.61V1077.69h56.44q24.69,0,38.8,14.78T981,1131.81q0,25.55-13.45,39.35t-37.88,14.29Zm0-19.09h34.18q14.84,0,22.74-8.89T958.7,1132q0-16-8.15-25.59t-22.38-9.63h-34.3Z"/><path class="cls-1" d="M1124.84,1181.8q0,36.26-15.44,55.83t-43.91,19.59q-27.37,0-43.24-19t-16.48-53.82V1151q0-35.51,15.69-55.64t43.79-20.13q28,0,43.6,19.27t16,55Zm-22.25-31q0-28.1-9.19-41.78t-28.15-13.69q-18.37,0-27.8,13.87t-9.55,40.87v31.74q0,27.14,9.43,41.36t28.16,14.23q18.72,0,27.73-13.14t9.37-40.26Z"/><path class="cls-1" d="M1251.58,1077.69h22.26v177.09h-22.26V1118.31l-69,136.47h-22.38V1077.69h22.38v136.47Zm2.32-44q0,14.76-10,23.75t-26.33,9q-16.3,0-26.4-9T1181,1033.66h18.36q0,8.5,4.63,13.32t13.5,4.8q8.51,0,13.32-4.74t4.8-13.38Z"/><polygon class="cls-2" points="98.67 994.29 178.2 994.29 178.2 828.65 98.67 879 98.67 994.29"/><polygon class="cls-3" points="205.33 994.29 284.86 994.29 284.86 643.24 205.33 693.59 205.33 994.29"/><polygon class="cls-4" points="955.64 994.29 876.11 994.29 876.11 502.18 955.64 552.53 955.64 994.29"/><polygon class="cls-5" points="1062.93 994.29 985.14 994.29 983.4 659.24 1062.93 709.59 1062.93 994.29"/><polygon class="cls-6" points="1167.65 994.29 1089.13 994.29 1088.12 800 1167.65 850.35 1167.65 994.29"/><polygon class="cls-7" points="314.44 904.18 314.44 994.29 567.85 833.59 567.85 742.53 314.44 904.18"/><polygon class="cls-7" points="314.44 781.82 314.44 871.94 567.85 711.24 567.85 620.18 314.44 781.82"/><polygon class="cls-7" points="848.68 161.65 848.68 251.76 595.27 91.06 595.27 0 848.68 161.65"/><polygon class="cls-7" points="314.44 200.41 314.44 753.94 567.85 593.24 567.85 40.18 314.44 200.41"/><polygon class="cls-7" points="848.68 279.06 848.68 994.29 362.67 994.29 595.27 853.59 595.27 118.82 848.68 279.06"/><polygon class="cls-8" points="759.45 994.29 679.92 994.29 679.92 360.24 759.45 410.59 759.45 994.29"/><polygon class="cls-9" points="408.86 694.06 488.39 643.63 488.39 198.71 408.86 249.06 408.86 694.06"/></g></g></svg>